<mxfile host="app.diagrams.net" modified="2024-04-07T12:42:41.006Z" agent="Mozilla/5.0 (Macintosh; Intel Mac OS X 10_15_7) AppleWebKit/537.36 (KHTML, like Gecko) Chrome/123.0.0.0 Safari/537.36" etag="h_Yx3ZO20YljWKT1GFH8" version="24.2.2" type="device">
  <diagram name="Page-1" id="gipC9b2wfL6QUg08_dT6">
    <mxGraphModel dx="2225" dy="1471" grid="1" gridSize="10" guides="1" tooltips="1" connect="1" arrows="1" fold="1" page="1" pageScale="1" pageWidth="850" pageHeight="1100" math="0" shadow="0">
      <root>
        <mxCell id="0" />
        <mxCell id="1" parent="0" />
        <mxCell id="29lC3EeTpKvnCGlV4LmH-1" value="" style="ellipse;html=1;shape=startState;fillColor=#000000;strokeColor=#ff0000;" parent="1" vertex="1">
          <mxGeometry x="130" y="10" width="30" height="30" as="geometry" />
        </mxCell>
        <mxCell id="29lC3EeTpKvnCGlV4LmH-2" value="" style="edgeStyle=orthogonalEdgeStyle;html=1;verticalAlign=bottom;endArrow=open;endSize=8;strokeColor=#ff0000;rounded=0;" parent="1" source="29lC3EeTpKvnCGlV4LmH-1" edge="1">
          <mxGeometry relative="1" as="geometry">
            <mxPoint x="145" y="100" as="targetPoint" />
          </mxGeometry>
        </mxCell>
        <mxCell id="29lC3EeTpKvnCGlV4LmH-3" value="Phamacy Owner" style="rounded=1;whiteSpace=wrap;html=1;arcSize=40;fontColor=#000000;fillColor=#ffffc0;strokeColor=#ff0000;" parent="1" vertex="1">
          <mxGeometry x="85" y="100" width="120" height="40" as="geometry" />
        </mxCell>
        <mxCell id="29lC3EeTpKvnCGlV4LmH-4" value="" style="edgeStyle=orthogonalEdgeStyle;html=1;verticalAlign=bottom;endArrow=open;endSize=8;strokeColor=#ff0000;rounded=0;" parent="1" source="29lC3EeTpKvnCGlV4LmH-3" edge="1">
          <mxGeometry relative="1" as="geometry">
            <mxPoint x="145" y="200" as="targetPoint" />
          </mxGeometry>
        </mxCell>
        <mxCell id="JgZ6edC385UGzayBsX16-12" value="Access web" style="edgeLabel;html=1;align=center;verticalAlign=middle;resizable=0;points=[];" vertex="1" connectable="0" parent="29lC3EeTpKvnCGlV4LmH-4">
          <mxGeometry x="-0.0967" y="1" relative="1" as="geometry">
            <mxPoint as="offset" />
          </mxGeometry>
        </mxCell>
        <mxCell id="29lC3EeTpKvnCGlV4LmH-7" value="Authentication&lt;div&gt;successfull&amp;nbsp;&lt;/div&gt;" style="rhombus;whiteSpace=wrap;html=1;fontColor=#000000;fillColor=#ffffc0;strokeColor=#ff0000;" parent="1" vertex="1">
          <mxGeometry x="260" y="186.25" width="135" height="67.5" as="geometry" />
        </mxCell>
        <mxCell id="29lC3EeTpKvnCGlV4LmH-9" value="" style="edgeStyle=orthogonalEdgeStyle;html=1;align=left;verticalAlign=top;endArrow=open;endSize=8;strokeColor=#ff0000;rounded=0;entryX=0;entryY=0.5;entryDx=0;entryDy=0;exitX=1;exitY=0.5;exitDx=0;exitDy=0;" parent="1" source="JgZ6edC385UGzayBsX16-13" edge="1" target="29lC3EeTpKvnCGlV4LmH-7">
          <mxGeometry x="-1" relative="1" as="geometry">
            <mxPoint x="90" y="542.51" as="targetPoint" />
            <mxPoint x="90.05263157894751" y="497.48368421052646" as="sourcePoint" />
            <mxPoint as="offset" />
          </mxGeometry>
        </mxCell>
        <mxCell id="29lC3EeTpKvnCGlV4LmH-10" value="Custermize report" style="rounded=1;whiteSpace=wrap;html=1;arcSize=40;fontColor=#000000;fillColor=#ffffc0;strokeColor=#ff0000;" parent="1" vertex="1">
          <mxGeometry x="275" y="930" width="120" height="40" as="geometry" />
        </mxCell>
        <mxCell id="29lC3EeTpKvnCGlV4LmH-12" value="Interact with&lt;div&gt;Dashoard&lt;/div&gt;" style="rhombus;whiteSpace=wrap;html=1;fontColor=#000000;fillColor=#ffffc0;strokeColor=#ff0000;" parent="1" vertex="1">
          <mxGeometry x="255" y="670" width="160" height="80" as="geometry" />
        </mxCell>
        <mxCell id="29lC3EeTpKvnCGlV4LmH-23" value="" style="ellipse;html=1;shape=endState;fillColor=#000000;strokeColor=#ff0000;" parent="1" vertex="1">
          <mxGeometry x="580" y="695" width="30" height="30" as="geometry" />
        </mxCell>
        <mxCell id="29lC3EeTpKvnCGlV4LmH-32" value="Display error message" style="rounded=1;whiteSpace=wrap;html=1;arcSize=40;fontColor=#000000;fillColor=#ffffc0;strokeColor=#ff0000;" parent="1" vertex="1">
          <mxGeometry x="480" y="200" width="120" height="40" as="geometry" />
        </mxCell>
        <mxCell id="JgZ6edC385UGzayBsX16-28" style="edgeStyle=orthogonalEdgeStyle;rounded=0;orthogonalLoop=1;jettySize=auto;html=1;entryX=0.5;entryY=0;entryDx=0;entryDy=0;strokeColor=#FF3333;" edge="1" parent="1" source="sX7Ey2EDDoo_Mh42uKox-4" target="29lC3EeTpKvnCGlV4LmH-10">
          <mxGeometry relative="1" as="geometry" />
        </mxCell>
        <mxCell id="sX7Ey2EDDoo_Mh42uKox-4" value="Filter Data" style="rounded=1;whiteSpace=wrap;html=1;arcSize=40;fontColor=#000000;fillColor=#ffffc0;strokeColor=#ff0000;" parent="1" vertex="1">
          <mxGeometry x="245" y="820" width="180" height="60" as="geometry" />
        </mxCell>
        <mxCell id="JgZ6edC385UGzayBsX16-29" value="" style="edgeStyle=orthogonalEdgeStyle;rounded=0;orthogonalLoop=1;jettySize=auto;html=1;endArrow=none;endFill=0;startArrow=classicThin;startFill=1;strokeColor=#FF3333;" edge="1" parent="1" source="sX7Ey2EDDoo_Mh42uKox-8" target="29lC3EeTpKvnCGlV4LmH-10">
          <mxGeometry relative="1" as="geometry" />
        </mxCell>
        <mxCell id="sX7Ey2EDDoo_Mh42uKox-8" value="" style="ellipse;html=1;shape=endState;fillColor=#000000;strokeColor=#ff0000;" parent="1" vertex="1">
          <mxGeometry x="320" y="1020" width="30" height="30" as="geometry" />
        </mxCell>
        <mxCell id="JgZ6edC385UGzayBsX16-2" value="" style="ellipse;html=1;shape=endState;fillColor=#000000;strokeColor=#ff0000;" vertex="1" parent="1">
          <mxGeometry x="525" y="310" width="30" height="30" as="geometry" />
        </mxCell>
        <mxCell id="JgZ6edC385UGzayBsX16-4" value="" style="edgeStyle=orthogonalEdgeStyle;html=1;align=left;verticalAlign=bottom;endArrow=open;endSize=8;strokeColor=#ff0000;rounded=0;exitX=0.5;exitY=1;exitDx=0;exitDy=0;" edge="1" parent="1" source="29lC3EeTpKvnCGlV4LmH-32" target="JgZ6edC385UGzayBsX16-2">
          <mxGeometry x="-0.4286" y="21" relative="1" as="geometry">
            <mxPoint x="580" y="230" as="targetPoint" />
            <mxPoint x="305" y="110" as="sourcePoint" />
            <mxPoint as="offset" />
          </mxGeometry>
        </mxCell>
        <mxCell id="JgZ6edC385UGzayBsX16-7" value="Yes" style="edgeStyle=orthogonalEdgeStyle;html=1;align=left;verticalAlign=top;endArrow=open;endSize=8;strokeColor=#ff0000;rounded=0;entryX=0.5;entryY=0;entryDx=0;entryDy=0;exitX=0.5;exitY=1;exitDx=0;exitDy=0;" edge="1" parent="1" source="29lC3EeTpKvnCGlV4LmH-12" target="sX7Ey2EDDoo_Mh42uKox-4">
          <mxGeometry x="-0.6801" y="5" relative="1" as="geometry">
            <mxPoint x="155" y="799" as="targetPoint" />
            <mxPoint as="offset" />
            <mxPoint x="154.99999999999977" y="769" as="sourcePoint" />
          </mxGeometry>
        </mxCell>
        <mxCell id="JgZ6edC385UGzayBsX16-9" value="" style="edgeStyle=orthogonalEdgeStyle;html=1;verticalAlign=bottom;endArrow=open;endSize=8;strokeColor=#ff0000;rounded=0;entryX=0;entryY=0.5;entryDx=0;entryDy=0;exitX=1;exitY=0.5;exitDx=0;exitDy=0;" edge="1" parent="1" source="29lC3EeTpKvnCGlV4LmH-12" target="29lC3EeTpKvnCGlV4LmH-23">
          <mxGeometry relative="1" as="geometry">
            <mxPoint x="200" y="845" as="targetPoint" />
            <mxPoint x="564.24" y="730.4399999999998" as="sourcePoint" />
          </mxGeometry>
        </mxCell>
        <mxCell id="JgZ6edC385UGzayBsX16-27" value="No" style="edgeLabel;html=1;align=center;verticalAlign=middle;resizable=0;points=[];" vertex="1" connectable="0" parent="JgZ6edC385UGzayBsX16-9">
          <mxGeometry x="-0.7195" relative="1" as="geometry">
            <mxPoint x="25" y="-10" as="offset" />
          </mxGeometry>
        </mxCell>
        <mxCell id="JgZ6edC385UGzayBsX16-13" value="Owner Log with creditial" style="rounded=1;whiteSpace=wrap;html=1;arcSize=40;fontColor=#000000;fillColor=#ffffc0;strokeColor=#ff0000;" vertex="1" parent="1">
          <mxGeometry x="85" y="200" width="120" height="40" as="geometry" />
        </mxCell>
        <mxCell id="JgZ6edC385UGzayBsX16-14" value="" style="edgeStyle=orthogonalEdgeStyle;html=1;align=left;verticalAlign=bottom;endArrow=open;endSize=8;strokeColor=#ff0000;rounded=0;exitX=1;exitY=0.5;exitDx=0;exitDy=0;entryX=0;entryY=0.5;entryDx=0;entryDy=0;" edge="1" parent="1" source="29lC3EeTpKvnCGlV4LmH-7" target="29lC3EeTpKvnCGlV4LmH-32">
          <mxGeometry x="-0.4286" y="21" relative="1" as="geometry">
            <mxPoint x="700" y="242" as="targetPoint" />
            <mxPoint x="610" y="230" as="sourcePoint" />
            <mxPoint as="offset" />
          </mxGeometry>
        </mxCell>
        <mxCell id="JgZ6edC385UGzayBsX16-16" value="No" style="edgeLabel;html=1;align=center;verticalAlign=middle;resizable=0;points=[];" vertex="1" connectable="0" parent="JgZ6edC385UGzayBsX16-14">
          <mxGeometry x="0.0563" relative="1" as="geometry">
            <mxPoint x="-10" y="-10" as="offset" />
          </mxGeometry>
        </mxCell>
        <mxCell id="JgZ6edC385UGzayBsX16-21" style="edgeStyle=orthogonalEdgeStyle;rounded=0;orthogonalLoop=1;jettySize=auto;html=1;entryX=0.5;entryY=0;entryDx=0;entryDy=0;strokeColor=#FF3333;" edge="1" parent="1" source="JgZ6edC385UGzayBsX16-17" target="JgZ6edC385UGzayBsX16-20">
          <mxGeometry relative="1" as="geometry" />
        </mxCell>
        <mxCell id="JgZ6edC385UGzayBsX16-17" value="Access Analytics&amp;nbsp;&lt;div&gt;Dashboard&lt;/div&gt;" style="rounded=1;whiteSpace=wrap;html=1;arcSize=40;fontColor=#000000;fillColor=#ffffc0;strokeColor=#ff0000;" vertex="1" parent="1">
          <mxGeometry x="275" y="330" width="120" height="40" as="geometry" />
        </mxCell>
        <mxCell id="JgZ6edC385UGzayBsX16-18" style="edgeStyle=orthogonalEdgeStyle;rounded=0;orthogonalLoop=1;jettySize=auto;html=1;entryX=0.444;entryY=0.003;entryDx=0;entryDy=0;entryPerimeter=0;fillColor=#a20025;strokeColor=#FF0000;" edge="1" parent="1" source="29lC3EeTpKvnCGlV4LmH-7" target="JgZ6edC385UGzayBsX16-17">
          <mxGeometry relative="1" as="geometry" />
        </mxCell>
        <mxCell id="JgZ6edC385UGzayBsX16-19" value="Yes" style="edgeLabel;html=1;align=center;verticalAlign=middle;resizable=0;points=[];" vertex="1" connectable="0" parent="JgZ6edC385UGzayBsX16-18">
          <mxGeometry x="-0.3853" y="2" relative="1" as="geometry">
            <mxPoint as="offset" />
          </mxGeometry>
        </mxCell>
        <mxCell id="JgZ6edC385UGzayBsX16-23" value="No" style="edgeStyle=orthogonalEdgeStyle;rounded=0;orthogonalLoop=1;jettySize=auto;html=1;entryX=0;entryY=0.5;entryDx=0;entryDy=0;strokeColor=#FF3333;" edge="1" parent="1" source="JgZ6edC385UGzayBsX16-20" target="JgZ6edC385UGzayBsX16-22">
          <mxGeometry x="-0.2121" y="10" relative="1" as="geometry">
            <Array as="points">
              <mxPoint x="440" y="470" />
              <mxPoint x="440" y="470" />
            </Array>
            <mxPoint as="offset" />
          </mxGeometry>
        </mxCell>
        <mxCell id="JgZ6edC385UGzayBsX16-25" style="edgeStyle=orthogonalEdgeStyle;rounded=0;orthogonalLoop=1;jettySize=auto;html=1;entryX=0.5;entryY=0;entryDx=0;entryDy=0;strokeColor=#FF3333;" edge="1" parent="1" source="JgZ6edC385UGzayBsX16-20" target="JgZ6edC385UGzayBsX16-24">
          <mxGeometry relative="1" as="geometry" />
        </mxCell>
        <mxCell id="JgZ6edC385UGzayBsX16-20" value="Select Phamacy&lt;div&gt;&amp;nbsp;or Chain&lt;/div&gt;" style="rhombus;whiteSpace=wrap;html=1;fontColor=#000000;fillColor=#ffffc0;strokeColor=#ff0000;" vertex="1" parent="1">
          <mxGeometry x="262.5" y="430" width="145" height="80" as="geometry" />
        </mxCell>
        <mxCell id="JgZ6edC385UGzayBsX16-22" value="" style="ellipse;html=1;shape=endState;fillColor=#000000;strokeColor=#ff0000;" vertex="1" parent="1">
          <mxGeometry x="490" y="455" width="30" height="30" as="geometry" />
        </mxCell>
        <mxCell id="JgZ6edC385UGzayBsX16-26" style="edgeStyle=orthogonalEdgeStyle;rounded=0;orthogonalLoop=1;jettySize=auto;html=1;entryX=0.5;entryY=0;entryDx=0;entryDy=0;strokeColor=#FF3333;" edge="1" parent="1" source="JgZ6edC385UGzayBsX16-24" target="29lC3EeTpKvnCGlV4LmH-12">
          <mxGeometry relative="1" as="geometry" />
        </mxCell>
        <mxCell id="JgZ6edC385UGzayBsX16-24" value="Retrieve relevent analytics data" style="rounded=1;whiteSpace=wrap;html=1;arcSize=40;fontColor=#000000;fillColor=#ffffc0;strokeColor=#ff0000;" vertex="1" parent="1">
          <mxGeometry x="275" y="560" width="120" height="40" as="geometry" />
        </mxCell>
      </root>
    </mxGraphModel>
  </diagram>
</mxfile>
